<svg xmlns="http://www.w3.org/2000/svg" width="1024" height="1024" viewBox="0 0 1024 1024" fill="none">
  <path fill="#173F37" d="M523 128c37 0 58 21 58 58v114c0 27-9 53-26 74L430 518c-16 19-45 22-65 6l-38-30c-18-14-46-12-61 4L128 640l155-77c16-8 35-4 46 10l46 58c18 23 52 24 72 3l195-214c8-9 13-21 13-33V198c0-39-26-70-66-70h-66Z"></path>
  <circle cx="434" cy="336" r="48" fill="#173F37"></circle>
  <path fill="#1F8B6F" d="M247 557c25-15 55-9 73 14l43 55c20 26 59 29 83 5l118-123 42 84 143-153-31 93 110-23-287 309c-55-14-106-44-147-86l-75-77c-21-21-53-25-72-11Z"></path>
  <path fill="#173F37" d="M338 687c53 52 113 89 179 108 23 7 48 0 63-18l261-281-30 89 85-18-295 316c-17 18-43 26-67 20-86-22-164-66-230-130l34-86Z"></path>
</svg>